<svg width="15" height="15" viewBox="0 0 15 15" fill="none" xmlns="http://www.w3.org/2000/svg">
<path d="M13.3533 3.49115L6.99326 9.85112C6.35992 10.4844 4.4799 10.7778 4.0599 10.3578C3.6399 9.93778 3.92657 8.05778 4.5599 7.42445L10.9266 1.05779C11.0836 0.8865 11.2737 0.748807 11.4854 0.653007C11.6971 0.557207 11.926 0.505274 12.1583 0.50038C12.3906 0.495494 12.6215 0.537721 12.8371 0.624527C13.0526 0.711334 13.2483 0.840934 13.4124 1.00547C13.5765 1.17 13.7055 1.36607 13.7917 1.58184C13.8779 1.79762 13.9196 2.02862 13.9141 2.26092C13.9085 2.49322 13.8559 2.72201 13.7596 2.93345C13.6632 3.14488 13.525 3.33461 13.3533 3.49115Z" stroke="black" stroke-linecap="round" stroke-linejoin="round"/>
<path d="M6.5 1.89111H3.16667C2.45942 1.89111 1.78119 2.17206 1.28109 2.67216C0.780993 3.17226 0.5 3.85053 0.5 4.55778V11.2244C0.5 11.9317 0.780993 12.61 1.28109 13.11C1.78119 13.6102 2.45942 13.8911 3.16667 13.8911H10.5C11.9733 13.8911 12.5 12.6911 12.5 11.2244V7.89111" stroke="black" stroke-linecap="round" stroke-linejoin="round"/>
</svg>
